<svg width="167" height="24" viewBox="0 0 167 24" fill="none" xmlns="http://www.w3.org/2000/svg">
<path d="M24.823 4.8829C23.9345 4.8829 23.2386 4.67081 22.7352 4.24663C22.2318 3.82245 21.98 3.21571 21.9796 2.42641C21.9796 1.7166 22.2363 1.13455 22.7497 0.680287C23.2631 0.22602 23.9542 -0.000741053 24.823 1.81928e-06C25.7118 1.81928e-06 26.4031 0.212093 26.8968 0.636273C27.3905 1.06045 27.6381 1.65717 27.6396 2.42641C27.6396 3.15628 27.3879 3.74817 26.8846 4.20206C26.3812 4.65596 25.694 4.8829 24.823 4.8829ZM22.4536 23.7041V7.98848H27.1935V23.7002L22.4536 23.7041Z" fill="#3A3F49"/>
<path d="M30.1835 23.7041V1.80408H34.9234V23.7041H30.1835Z" fill="#3A3F49"/>
<path d="M37.7065 23.7041V1.80408H42.4464V23.7041H37.7065Z" fill="#3A3F49"/>
<path d="M47.8359 4.8829C46.9471 4.8829 46.2509 4.67081 45.7476 4.24663C45.2442 3.82245 44.9926 3.21571 44.9926 2.42641C44.9926 1.7166 45.2491 1.13455 45.7621 0.680287C46.2751 0.22602 46.9664 -0.000741053 47.8359 1.81928e-06C48.7241 1.81928e-06 49.4151 0.212093 49.9092 0.636273C50.4033 1.06045 50.6501 1.65717 50.6497 2.42641C50.6497 3.15628 50.3979 3.74817 49.8941 4.20206C49.3904 4.65596 48.7043 4.8829 47.8359 4.8829ZM45.466 23.7041V7.98848H50.2059V23.7002L45.466 23.7041Z" fill="#3A3F49"/>
<path d="M60.5717 24C58.9322 24 57.4759 23.6449 56.2026 22.9347C54.9573 22.2522 53.9149 21.2527 53.1814 20.0375C52.4408 18.8144 52.0706 17.4137 52.0706 15.8354C52.0706 14.2572 52.4401 12.8554 53.1791 11.63C53.9123 10.4138 54.9547 9.41328 56.2004 8.73005C57.474 8.01987 58.9304 7.66459 60.5694 7.66422C62.2085 7.66384 63.6647 8.01912 64.9379 8.73005C66.1813 9.41097 67.2194 10.4124 67.9441 11.63C68.6746 12.8536 69.0399 14.2544 69.0399 15.8327C69.0399 17.4109 68.6746 18.8116 67.9441 20.0347C67.219 21.2514 66.181 22.2518 64.9379 22.9319C63.6658 23.6443 62.2104 24.0004 60.5717 24ZM60.5717 19.916C61.2821 19.916 61.9141 19.7385 62.4676 19.3834C63.0233 19.0251 63.4732 18.525 63.7708 17.9348C64.0864 17.3234 64.2351 16.6231 64.2169 15.8338C64.2362 15.0448 64.0875 14.3391 63.7708 13.7166C63.4768 13.1197 63.0264 12.6135 62.4676 12.2518C61.9144 11.8964 61.2825 11.7186 60.5717 11.7186C59.8967 11.7085 59.2332 11.8937 58.6612 12.2518C58.0954 12.6098 57.6393 13.1166 57.343 13.7166C57.0266 14.338 56.8779 15.0437 56.8969 15.8338C56.8768 16.6227 57.0255 17.323 57.343 17.9348C57.6429 18.5281 58.0986 19.0288 58.6612 19.3834C59.2333 19.7414 59.8968 19.9263 60.5717 19.916Z" fill="#3A3F49"/>
<path d="M70.671 23.7041V7.98849H75.1733L75.3216 11.1843L74.3737 11.5398C74.5908 10.8296 74.9811 10.1835 75.5447 9.60146C76.1248 9.00751 76.8134 8.53015 77.5734 8.1952C78.3551 7.84187 79.2035 7.66024 80.0615 7.66256C81.2467 7.66256 82.2439 7.90399 83.0532 8.38686C83.8625 8.86973 84.4742 9.59124 84.8884 10.5514C85.3033 11.5086 85.5105 12.6777 85.5101 14.0587V23.7041H80.7418V14.4415C80.7418 13.81 80.653 13.2872 80.4753 12.8731C80.3161 12.4798 80.0291 12.1515 79.6606 11.9409C79.2948 11.7337 78.8455 11.6399 78.3128 11.6596C77.9195 11.6562 77.5287 11.7214 77.1579 11.8524C76.8153 11.9724 76.5022 12.164 76.2395 12.4145C75.9867 12.6557 75.7809 12.9415 75.6322 13.2575C75.4821 13.582 75.4059 13.9358 75.4092 14.2933V23.7041H70.6693H70.671Z" fill="#3A3F49"/>
<path d="M93.3002 24C91.76 24 90.4031 23.7535 89.2295 23.2606C88.0559 22.7677 87.123 22.1068 86.4308 21.2777L89.3037 18.7917C89.8885 19.386 90.596 19.8456 91.377 20.1383C92.1472 20.4247 92.8779 20.5677 93.569 20.5674C93.8187 20.5707 94.0678 20.5407 94.3095 20.4782C94.506 20.4287 94.6916 20.3435 94.8571 20.2269C94.9984 20.1263 95.115 19.9948 95.1979 19.8425C95.2795 19.6822 95.3201 19.5042 95.3161 19.3243C95.3161 18.9299 95.1384 18.6242 94.783 18.4073C94.6056 18.3088 94.3095 18.1903 93.8947 18.0518C93.4798 17.9133 92.9467 17.7554 92.2954 17.5782C91.366 17.3416 90.5613 17.0606 89.8814 16.7352C89.2014 16.4099 88.6438 16.0299 88.2085 15.5953C87.8226 15.1953 87.5115 14.7294 87.2901 14.2197C87.0726 13.7164 86.964 13.149 86.9644 12.5176C86.9552 11.8222 87.1342 11.1373 87.4824 10.5352C87.8376 9.93295 88.312 9.40933 88.8765 8.99637C89.4842 8.54981 90.1661 8.21407 90.8907 8.00464C91.6547 7.77743 92.4479 7.66275 93.245 7.66422C94.0812 7.66131 94.9146 7.76086 95.7265 7.96062C96.4921 8.14892 97.2328 8.42702 97.933 8.78911C98.5944 9.13017 99.2071 9.55815 99.7548 10.0617L97.2667 12.8435C96.527 12.1534 95.6485 11.6288 94.6898 11.3047C94.2709 11.1566 93.8309 11.0767 93.3867 11.0679C93.1238 11.065 92.8614 11.0899 92.6037 11.142C92.3977 11.1824 92.2016 11.2629 92.0266 11.3788C91.8754 11.4746 91.7521 11.6084 91.6689 11.7668C91.5857 11.9252 91.5456 12.1026 91.5526 12.2814C91.5529 12.4803 91.6094 12.6751 91.7154 12.8435C91.8295 13.0275 91.9871 13.1806 92.1744 13.2892C92.3718 13.4081 92.6878 13.5415 93.1223 13.6893C93.5569 13.8371 94.1493 14.0195 94.8995 14.2364C95.7213 14.4551 96.5234 14.7421 97.2973 15.0944C97.9687 15.4101 98.5018 15.7851 98.8966 16.2193C99.2127 16.5555 99.4549 16.9541 99.6076 17.3893C99.7684 17.8506 99.8486 18.3361 99.8446 18.8246C99.8446 19.8308 99.5632 20.7235 99.0003 21.5028C98.4375 22.2821 97.6622 22.8925 96.6745 23.3342C95.6886 23.7784 94.5638 24.0004 93.3002 24Z" fill="#3A3F49"/>
<path d="M110.716 24C109.235 24 107.872 23.7387 106.628 23.2161C105.408 22.7103 104.309 21.954 103.4 20.9964C102.477 20.0175 101.757 18.8659 101.281 17.6078C100.777 16.3059 100.525 14.8855 100.525 13.3466C100.525 11.8275 100.777 10.4316 101.281 9.15908C101.768 7.91338 102.498 6.77697 103.429 5.81615C104.342 4.86846 105.441 4.11778 106.656 3.61037C107.88 3.09705 109.223 2.84057 110.684 2.84094C111.66 2.84246 112.63 2.99719 113.557 3.29948C114.485 3.59585 115.367 4.01903 116.178 4.55698C116.936 5.05042 117.602 5.67115 118.148 6.39169L116.548 8.04922C116.056 7.45886 115.483 6.94081 114.845 6.51036C114.218 6.08365 113.536 5.74507 112.816 5.50414C112.129 5.27136 111.409 5.1515 110.684 5.14923C109.622 5.14061 108.569 5.347 107.588 5.75598C106.654 6.14422 105.812 6.72388 105.115 7.45753C104.41 8.21008 103.861 9.0953 103.502 10.0617C103.116 11.0679 102.924 12.1636 102.924 13.3489C102.924 14.5724 103.116 15.6969 103.502 16.7224C103.858 17.7036 104.416 18.5992 105.141 19.3512C105.865 20.1031 106.739 20.6948 107.707 21.0877C108.685 21.4922 109.776 21.6943 110.98 21.6939C112.426 21.6842 113.841 21.2744 115.067 20.51C115.631 20.1605 116.141 19.7313 116.582 19.2358L117.767 21.1591C117.313 21.7118 116.705 22.2 115.945 22.6238C115.155 23.0601 114.315 23.3983 113.442 23.6306C112.554 23.8742 111.637 23.9984 110.716 24Z" fill="#F15A24"/>
<path d="M126.619 24C125.079 24 123.712 23.6547 122.517 22.9642C121.333 22.2842 120.36 21.2909 119.705 20.0938C119.024 18.871 118.683 17.4802 118.683 15.9212C118.683 14.3824 119.024 13.0112 119.705 11.8078C120.367 10.6229 121.34 9.64065 122.519 8.96629C123.713 8.27728 125.08 7.93277 126.619 7.93277C128.139 7.93277 129.496 8.27802 130.69 8.96852C131.869 9.64303 132.841 10.6253 133.504 11.81C134.185 13.0135 134.526 14.3846 134.526 15.9235C134.526 17.4835 134.185 18.8744 133.504 20.096C132.848 21.2933 131.874 22.2865 130.69 22.9665C129.497 23.6559 128.141 24.0004 126.619 24ZM126.619 21.899C127.705 21.899 128.671 21.6377 129.519 21.115C130.362 20.5984 131.049 19.8615 131.504 18.9839C131.977 18.0862 132.214 17.0647 132.215 15.9196C132.215 14.7744 131.978 13.7584 131.504 12.8714C131.05 12.0046 130.362 11.2819 129.519 10.7848C128.67 10.2815 127.703 10.0301 126.619 10.0305C125.536 10.0308 124.563 10.2823 123.702 10.7848C122.847 11.2835 122.149 12.0113 121.688 12.8859C121.204 13.784 120.972 14.7952 120.992 15.9196C120.972 17.064 121.204 18.0854 121.688 18.9839C122.154 19.8633 122.85 20.5998 123.702 21.115C124.562 21.6377 125.534 21.899 126.619 21.899Z" fill="#F15A24"/>
<path d="M142.556 24C141.153 24 139.894 23.6547 138.779 22.9642C137.664 22.2737 136.785 21.3218 136.143 20.1083C135.502 18.8955 135.181 17.5195 135.181 15.9803C135.181 14.4203 135.507 13.0343 136.158 11.8223C136.81 10.6103 137.689 9.65847 138.794 8.96685C139.9 8.27747 141.144 7.93278 142.526 7.93278C143.286 7.93104 144.041 8.05086 144.763 8.28768C145.458 8.5119 146.113 8.84657 146.703 9.27886C147.253 9.6804 147.733 10.1698 148.124 10.7275C148.484 11.2322 148.717 11.8156 148.805 12.429L148.124 12.1922V1.80408H150.346V23.7041H148.153L148.094 19.8559L148.657 19.6486C148.578 20.2013 148.356 20.7399 147.991 21.2644C147.61 21.8034 147.145 22.2779 146.613 22.6701C146.043 23.093 145.408 23.4219 144.733 23.6445C144.032 23.8814 143.296 24.0015 142.556 24ZM142.882 21.958C143.908 21.958 144.826 21.7015 145.636 21.1886C146.446 20.6756 147.083 19.9655 147.546 19.058C148.01 18.151 148.242 17.1152 148.243 15.9508C148.243 14.7863 148.011 13.7554 147.546 12.858C147.109 11.9911 146.45 11.2558 145.635 10.7275C144.824 10.2048 143.906 9.94336 142.88 9.94299C141.814 9.94299 140.881 10.2045 140.081 10.7275C139.281 11.2504 138.649 11.9606 138.185 12.858C137.724 13.7562 137.493 14.7871 137.493 15.9508C137.493 17.0952 137.72 18.1211 138.175 19.0285C138.629 19.9359 139.261 20.6511 140.071 21.1741C140.878 21.6967 141.815 21.958 142.882 21.958Z" fill="#F15A24"/>
<path d="M160.001 24C158.461 24 157.093 23.6646 155.898 22.9938C154.719 22.3389 153.749 21.3646 153.1 20.1829C152.428 18.9795 152.093 17.5983 152.093 16.0394C152.093 14.8366 152.28 13.7467 152.655 12.7694C153.013 11.8216 153.551 10.9521 154.24 10.2093C154.926 9.47663 155.758 8.89681 156.684 8.50774C157.658 8.09835 158.706 7.89208 159.764 7.90156C160.81 7.90156 161.763 8.08895 162.622 8.46373C163.461 8.82453 164.217 9.35318 164.843 10.0171C165.474 10.6926 165.954 11.4947 166.25 12.3699C166.566 13.2774 166.704 14.2737 166.665 15.3591L166.636 16.3948H153.751L153.425 14.53H164.947L164.414 15.0315V14.3228C164.37 13.5982 164.157 12.894 163.792 12.2663C163.412 11.6008 162.866 11.0451 162.207 10.6533C161.526 10.2392 160.711 10.0321 159.764 10.0321C158.658 10.0321 157.701 10.254 156.891 10.6979C156.081 11.1418 155.459 11.7987 155.025 12.6686C154.59 13.537 154.373 14.6123 154.373 15.8945C154.373 17.1173 154.61 18.1775 155.084 19.0753C155.54 19.9551 156.246 20.6809 157.113 21.1618C157.991 21.6555 159.053 21.9021 160.297 21.9017C161.037 21.8998 161.772 21.7747 162.472 21.5318C163.192 21.2855 163.987 20.7973 164.856 20.067L166.011 21.6649C165.528 22.1401 164.98 22.5437 164.382 22.8634C163.725 23.2187 163.03 23.4969 162.309 23.6924C161.557 23.8984 160.781 24.0018 160.001 24Z" fill="#F15A24"/>
<path d="M16.3068 1.81018V1.80127H1.44483V4.19313H11.9846L0 23.7738H6.57895L20.0224 1.81018H16.3068Z" fill="#3A3F49"/>
<path d="M18.7593 21.3819H10.5019V23.7738H18.7593V21.3819Z" fill="#3A3F49"/>
</svg>
